<?xml version="1.0" standalone="no"?>
<!DOCTYPE svg PUBLIC "-//W3C//DTD SVG 20010904//EN"
 "http://www.w3.org/TR/2001/REC-SVG-20010904/DTD/svg10.dtd">
<svg version="1.0" xmlns="http://www.w3.org/2000/svg"
 width="4321.000000pt" height="2881.000000pt" viewBox="0 0 4321.000000 2881.000000"
 preserveAspectRatio="xMidYMid meet">

<g transform="translate(0.000000,2881.000000) scale(0.100000,-0.100000)"
fill="#000000" stroke="none">
<path d="M0 14405 l0 -14405 21605 0 21605 0 0 14405 0 14405 -21605 0 -21605
0 0 -14405z m30877 7703 c-3 -8 -6 -5 -6 6 -1 11 2 17 5 13 3 -3 4 -12 1 -19z
m20 -103 c1 -21 -2 -33 -8 -30 -5 4 -7 10 -4 15 3 5 1 11 -5 15 -5 3 -10 18
-10 33 0 40 24 10 27 -33z m-11652 -80 c946 -3 2487 -7 3425 -10 938 -2 2004
-7 2370 -10 366 -3 1158 -7 1760 -10 602 -3 1415 -8 1805 -11 391 -3 890 -7
1109 -8 l399 -3 3 -319 c4 -582 14 -2478 19 -4004 3 -828 8 -1957 10 -2510 4
-836 6 -2296 5 -3345 l0 -230 -528 1 c-290 1 -536 2 -547 2 -11 1 -906 2
-1990 2 -1083 0 -2577 2 -3320 5 -742 2 -2180 7 -3195 10 -1957 6 -4079 14
-5415 20 -445 2 -859 4 -918 4 -69 1 -106 5 -102 11 8 12 -11 12 -94 0 -36 -5
-69 -6 -75 -3 -16 10 -97 10 -103 0 -3 -5 -9 -3 -14 4 -6 10 -9 11 -9 2 0 -8
-15 -13 -40 -13 -22 0 -40 4 -40 9 0 5 -20 8 -44 7 -24 0 -42 -4 -39 -8 2 -5
-68 -8 -156 -8 -122 0 -161 3 -161 13 -1 80 2 990 5 1277 2 206 6 782 10 1280
14 2109 25 3492 30 4070 4 482 7 839 20 2695 3 402 8 812 11 913 l7 183 2041
-5 c1122 -4 2815 -8 3761 -11z m11655 9 c0 -3 -7 -12 -15 -20 -16 -17 -18 -14
-9 10 6 15 24 23 24 10z m-3 -104 c0 -27 -3 -48 -7 -45 -10 6 -19 66 -13 83
10 25 18 10 20 -38z m3 -180 c0 -22 -4 -40 -9 -40 -12 0 -18 28 -13 58 7 37
22 25 22 -18z m-3 -62 c5 -7 7 -24 4 -37 -4 -13 -3 -58 0 -100 8 -90 14 -1015
8 -1116 0 -5 2 -71 5 -145 5 -127 10 -857 21 -3135 3 -539 7 -1227 10 -1530 3
-302 8 -1479 11 -2615 7 -2251 9 -2151 -48 -2311 -18 -50 -28 -64 -43 -64 -23
0 -23 3 3 110 11 44 23 114 26 155 6 70 19 413 17 435 -6 80 -32 5309 -31
6330 0 193 0 386 0 430 -2 218 -9 1658 -9 1850 0 170 -2 976 -3 1205 0 78 8
199 14 205 4 4 4 22 1 40 -3 19 -3 40 -1 47 7 17 5 34 -3 31 -4 -1 -3 16 2 38
5 22 6 45 3 51 -10 15 -12 138 -3 138 3 0 11 -6 16 -12z m130 -10630 c-3 -7
-5 -2 -5 12 0 14 2 19 5 13 2 -7 2 -19 0 -25z m-6 -111 c-8 -8 -11 -7 -11 4 0
20 13 34 18 19 3 -7 -1 -17 -7 -23z"/>
<path d="M24951 21232 c-6 -12 -10 -22 -9 -23 49 -12 58 -6 34 26 -13 18 -14
18 -25 -3z"/>
<path d="M25010 21171 c0 -10 31 -31 45 -31 11 0 -5 20 -26 30 -12 7 -19 7
-19 1z"/>
<path d="M24883 21163 c-7 -2 -13 -8 -13 -13 0 -10 38 -1 46 11 6 10 -13 11
-33 2z"/>
<path d="M24900 21130 c0 -5 5 -10 11 -10 5 0 7 5 4 10 -3 6 -8 10 -11 10 -2
0 -4 -4 -4 -10z"/>
<path d="M24944 21086 c23 -19 32 -20 42 -5 4 7 1 10 -7 7 -8 -3 -23 -1 -34 4
-20 9 -20 9 -1 -6z"/>
<path d="M23930 20931 c0 -5 9 -11 20 -14 24 -6 27 8 4 17 -21 8 -24 8 -24 -3z"/>
<path d="M22290 20881 c0 -35 3 -41 21 -41 17 0 20 5 17 37 -2 27 -8 39 -20
41 -15 3 -18 -4 -18 -37z"/>
<path d="M24000 20896 c0 -2 7 -7 16 -10 8 -3 12 -2 9 4 -6 10 -25 14 -25 6z"/>
<path d="M22125 20863 c15 -61 54 -65 40 -4 -5 22 -12 31 -27 31 -17 0 -19 -4
-13 -27z"/>
<path d="M22454 20855 c-3 -20 -4 -39 0 -42 10 -10 34 19 41 50 6 23 4 27 -13
27 -16 0 -23 -8 -28 -35z"/>
<path d="M19022 20863 c-5 -10 -32 -67 -60 -128 l-50 -110 -3 -1167 c-3 -855
-1 -1170 7 -1178 9 -9 13 -3 17 22 4 18 9 521 13 1118 3 597 8 1088 11 1093 6
10 165 9 181 -1 10 -7 12 -211 11 -1013 0 -552 0 -1202 1 -1445 l2 -441 -32
-7 c-54 -10 -165 -7 -178 6 -7 7 -12 34 -12 60 0 26 -4 48 -9 48 -4 0 -10 -97
-13 -216 -3 -119 -10 -220 -15 -225 -5 -5 -75 -8 -158 -7 -149 3 -149 3 -155
27 -8 37 -29 38 -36 2 l-6 -31 -269 0 c-147 0 -270 3 -272 8 -3 4 -7 86 -8
182 -4 171 -3 175 16 171 11 -2 156 -4 322 -5 338 -1 314 -7 276 67 l-14 27
-162 1 c-89 0 -185 0 -214 -1 l-52 -1 19 39 c11 23 29 42 41 45 39 10 79 -4
95 -34 14 -29 34 -39 34 -19 0 49 -78 108 -126 96 -41 -11 -87 -62 -82 -90 6
-31 -17 -36 -177 -36 l-122 0 -18 -40 c-10 -22 -15 -43 -11 -47 8 -8 67 -10
111 -3 l30 5 -2 -70 c-1 -38 -3 -116 -4 -173 -3 -104 -11 -128 -41 -117 -18 7
-30 116 -28 237 2 95 2 98 -9 98 -5 0 -11 -72 -13 -159 -1 -88 -6 -163 -10
-166 -4 -4 -78 -10 -165 -12 -246 -8 -380 31 -487 140 -105 108 -146 216 -146
388 0 87 -3 109 -14 109 -28 0 -29 -175 -1 -284 32 -124 124 -250 228 -310 26
-15 47 -30 47 -32 0 -2 -126 -4 -280 -4 l-280 0 0 30 c0 20 -7 33 -21 41 -22
11 -22 12 -15 306 7 272 6 296 -10 314 -16 17 -32 19 -186 19 -156 0 -169 -1
-166 -17 3 -16 20 -18 158 -21 85 -1 158 -6 162 -10 4 -4 -66 -7 -155 -7 -137
0 -162 -2 -162 -15 0 -12 22 -15 130 -18 85 -2 132 -7 136 -14 4 -7 8 -122 8
-257 0 -225 6 -280 26 -259 4 3 8 47 10 98 1 50 6 94 9 98 4 3 5 -43 4 -103
l-3 -110 -195 -3 c-109 -1 -199 -7 -204 -12 -15 -15 -72 -12 -113 5 -26 11
-75 15 -192 15 l-156 0 0 127 0 128 -42 3 -43 3 0 -126 c0 -121 -1 -126 -22
-134 -18 -6 -23 -16 -23 -42 0 -31 -3 -34 -32 -37 -25 -2 -33 -8 -33 -23 0
-19 18 -19 998 -20 548 0 1094 -2 1212 -4 118 -2 1543 -6 3165 -9 1623 -3
3137 -8 3365 -11 228 -3 1237 -8 2243 -11 1631 -5 1827 -4 1827 9 0 9 -8 18
-17 20 -10 3 -193 5 -406 5 -213 1 -392 4 -397 7 -13 8 -13 465 -1 465 6 0 43
-43 83 -96 40 -53 80 -105 89 -116 9 -12 21 -18 28 -14 15 10 9 19 -127 193
l-107 137 -5 -275 -5 -274 -120 0 -120 0 -3 288 c-2 245 -4 287 -17 287 -13 0
-15 -44 -17 -297 l-3 -298 -360 -3 c-403 -3 -463 3 -569 52 -179 83 -278 247
-278 466 -1 107 19 198 60 273 18 33 22 51 15 58 -12 12 -34 -20 -83 -125
l-32 -68 4 -147 5 -146 47 -92 c52 -103 126 -186 207 -232 32 -18 46 -31 39
-36 -6 -4 -87 -4 -178 0 -172 8 -200 9 -217 5 -5 -1 -20 -2 -32 -1 l-23 1 0
438 c0 258 -4 443 -10 452 -7 12 -43 16 -177 21 -176 6 -292 4 -301 -6 -16
-16 30 -20 221 -20 117 0 218 -4 225 -8 19 -13 15 -75 -5 -81 -14 -4 -522 -2
-675 3 -25 1 -28 5 -28 36 0 41 20 55 79 55 23 0 41 5 41 10 0 6 -27 10 -60
10 -90 0 -88 8 -89 -331 -1 -157 1 -293 5 -303 18 -48 24 7 24 234 0 232 1
250 18 250 9 -1 165 2 346 5 237 4 333 2 342 -6 18 -15 21 -754 3 -765 -6 -3
-15 -1 -19 6 -4 6 -18 17 -31 24 -13 6 -28 24 -33 39 -8 22 -6 33 12 57 30 40
28 56 -12 96 -41 41 -55 42 -95 9 -29 -25 -31 -25 -61 -10 -24 13 -30 22 -30
49 0 45 -26 66 -82 66 -52 0 -74 -19 -80 -65 -4 -37 -42 -60 -71 -42 -11 7
-33 20 -51 29 l-31 17 -32 -37 c-36 -41 -41 -77 -18 -123 16 -29 15 -30 -24
-69 l-40 -40 -131 0 -130 0 0 149 c0 123 -3 150 -15 155 -13 5 -15 -15 -15
-145 0 -112 -3 -151 -13 -154 -7 -3 -125 -4 -262 -3 l-249 3 64 41 c69 44 150
111 150 125 0 14 -183 199 -197 199 -25 0 -12 -19 67 -102 44 -46 80 -88 80
-94 0 -17 -73 -80 -122 -105 -169 -86 -374 -90 -546 -9 -79 37 -169 126 -206
204 -46 96 -59 168 -54 291 6 126 25 189 89 284 39 58 47 81 30 81 -12 0 -72
-83 -99 -136 -76 -149 -74 -365 4 -530 33 -70 121 -165 190 -207 30 -17 54
-36 54 -40 0 -8 -749 -1 -757 7 -2 1 24 24 57 49 33 26 60 54 60 62 0 22 -7
19 -57 -25 -68 -60 -139 -83 -243 -78 -102 5 -158 28 -226 96 -69 67 -95 131
-95 235 -1 65 4 95 20 132 41 92 102 147 204 185 28 10 28 11 25 87 -3 77 -3
78 -30 81 -25 3 -28 8 -28 38 l0 35 148 -3 147 -3 0 -30 c0 -30 0 -30 -62 -33
-55 -3 -63 -6 -63 -22 0 -15 7 -20 30 -20 29 0 29 -1 32 -61 l3 -62 55 -21
c68 -25 134 -91 168 -166 20 -43 26 -72 26 -132 1 -55 5 -78 14 -78 21 0 15
139 -9 203 -26 67 -91 143 -164 191 -52 35 -55 39 -55 80 0 36 4 45 25 54 13
6 27 23 31 37 9 36 -4 92 -22 99 -9 3 -85 6 -169 6 -174 0 -175 -1 -175 -78 0
-39 22 -72 49 -72 8 0 11 -15 9 -47 -3 -41 -7 -50 -31 -61 -52 -25 -145 -122
-173 -180 -36 -75 -44 -188 -20 -264 24 -73 79 -151 137 -193 27 -19 49 -38
49 -42 0 -5 -243 -7 -540 -5 l-540 2 0 150 0 150 34 0 c30 0 43 -9 97 -70 55
-62 89 -86 89 -62 0 5 -29 43 -65 85 -68 79 -94 93 -161 85 l-29 -3 -2 -100
c-1 -55 -2 -126 -2 -157 l-1 -58 -114 0 c-81 0 -117 4 -123 13 -4 6 -10 157
-13 335 -7 443 -23 433 -30 -18 l-5 -345 -189 -3 c-104 -1 -193 1 -197 5 -9 9
-10 842 -2 1123 5 173 7 180 53 180 39 0 259 56 275 70 16 13 21 65 7 73 -9 6
-8 99 2 115 16 26 -5 72 -39 87 -94 39 -253 62 -446 64 -79 1 -87 0 -92 -19
-5 -19 -13 -20 -131 -20 -113 0 -126 -2 -126 -17 0 -10 4 -24 9 -31 8 -14 104
-47 191 -66 52 -11 55 -14 58 -44 3 -26 -1 -32 -20 -36 -224 -43 -238 -48
-238 -86 0 -26 2 -27 77 -34 42 -3 98 -6 125 -6 26 0 48 -4 48 -10 0 -5 -7
-10 -15 -10 -10 0 -15 -10 -15 -32 0 -45 -9 -56 -50 -60 l-35 -3 -3 -62 c-4
-77 8 -101 51 -105 30 -3 32 -6 35 -45 2 -31 8 -44 23 -48 16 -5 19 -16 19
-63 0 -66 12 -94 32 -74 6 6 26 12 42 12 35 0 24 17 -14 22 -15 2 -26 11 -28
22 -5 22 13 36 46 36 13 0 20 4 17 10 -3 6 -17 10 -31 10 -13 0 -24 4 -24 9 0
11 104 23 135 15 l25 -6 0 -477 c0 -262 -4 -482 -9 -490 -7 -10 -42 -12 -172
-9 l-164 4 3 66 c3 46 -1 75 -12 96 -20 38 -21 129 -2 168 19 42 20 231 1 261
-8 12 -15 44 -15 71 0 40 -5 53 -27 74 -33 30 -74 58 -85 58 -5 0 -8 -40 -8
-89 0 -68 -4 -93 -16 -105 -12 -13 -15 -38 -12 -143 2 -71 7 -136 12 -145 20
-42 -13 -12 -59 54 -27 40 -79 113 -114 163 -35 49 -71 102 -80 117 -9 16 -22
28 -29 28 -16 0 -59 -29 -104 -70 l-30 -28 110 -159 c61 -88 112 -168 114
-179 3 -18 -6 -19 -257 -19 l-260 0 -3 43 c-4 51 10 72 49 72 52 0 77 -16 81
-52 2 -18 8 -32 13 -31 14 4 19 103 6 116 -15 15 -14 38 5 92 l15 47 -41 69
c-56 94 -74 94 -128 0 l-40 -69 15 -62 c11 -48 11 -65 2 -76 -7 -9 -11 -44
-10 -94 2 -57 -2 -87 -15 -111 -13 -26 -15 -48 -10 -98 l6 -66 -223 3 c-122 2
-228 5 -235 8 -12 3 -13 286 -8 1687 l6 1682 -57 115 c-45 88 -63 116 -80 118
-13 2 -25 -4 -31 -15z m86 -141 c26 -58 42 -112 42 -134 l0 -38 -95 0 -94 0
-6 33 c-5 27 3 54 41 135 26 56 52 102 58 102 6 0 30 -44 54 -98z m1810 -1877
c2 -55 0 -133 -3 -173 l-7 -73 -71 3 -72 3 0 35 c0 31 3 35 28 38 15 2 27 9
27 17 0 8 -12 15 -27 17 -20 2 -28 9 -28 23 0 14 8 21 28 23 15 2 27 9 27 17
0 8 -12 15 -27 17 -20 2 -28 9 -28 23 0 14 8 21 28 23 36 4 35 29 -3 37 -25 5
-30 12 -30 35 0 33 15 38 100 36 l55 -1 3 -100z m191 75 c57 -17 109 -30 116
-30 7 0 18 -7 25 -15 12 -14 -4 -15 -141 -13 l-154 3 -3 28 c-8 67 8 70 157
27z m-409 -25 c5 -3 6 -13 3 -21 -5 -13 -15 -14 -52 -9 -94 14 -141 27 -135
37 7 11 165 5 184 -7z m410 -71 l65 -6 0 -48 0 -47 -104 -7 c-56 -3 -107 -3
-112 0 -5 3 -9 30 -9 60 l0 54 48 0 c26 0 76 -3 112 -6z m137 -58 c-4 -9 -11
-16 -17 -16 -17 0 -24 31 -9 41 18 11 34 -5 26 -25z m-547 -86 c0 -18 -7 -20
-82 -20 -50 0 -78 4 -72 9 13 14 73 29 117 30 31 1 37 -2 37 -19z m550 -7 c10
-9 -29 -22 -152 -49 -111 -24 -131 -26 -139 -13 -13 21 -11 66 4 73 13 5 279
-4 287 -11z m-329 -225 c1 -62 2 -126 3 -143 l1 -30 -105 0 -105 0 -3 129 c-1
72 0 136 2 143 4 9 32 13 106 13 l100 0 1 -112z m-274 -35 c-4 -17 -4 -17 -12
0 -4 9 -4 25 0 35 8 16 8 16 12 0 3 -10 3 -26 0 -35z m-139 -497 c-2 -29 -8
-42 -20 -44 -16 -3 -18 5 -18 59 0 62 0 62 20 44 16 -14 20 -29 18 -59z m-370
-52 c12 -8 22 -24 22 -36 0 -11 8 -22 20 -25 11 -3 23 -17 27 -32 3 -14 17
-36 29 -48 14 -13 21 -28 18 -37 -4 -10 3 -20 20 -27 17 -8 26 -20 26 -36 0
-15 9 -27 25 -35 18 -8 25 -19 25 -39 0 -19 6 -30 20 -34 38 -12 20 -25 -34
-25 -53 0 -55 1 -93 51 -68 93 -203 289 -203 298 0 12 42 40 60 40 9 1 26 -6
38 -15z m-388 -51 c0 -16 -7 -36 -15 -47 -19 -25 -3 -56 28 -56 43 0 63 44 32
70 -17 14 -21 64 -4 58 6 -2 21 -20 32 -39 20 -35 20 -37 4 -81 -33 -85 -67
-104 -98 -53 -29 49 -34 108 -13 144 23 38 34 39 34 4z m785 -88 l0 -100 -47
-3 -48 -3 0 106 0 106 48 -3 47 -3 0 -100z m-2620 -46 c9 -13 5 -16 -25 -21
-17 -2 -26 2 -28 15 -3 12 3 17 22 17 14 0 28 -5 31 -11z m644 2 c7 -5 10 -14
6 -20 -5 -9 -77 -11 -272 -7 -146 2 -267 7 -270 10 -3 2 -3 8 0 13 7 11 519
15 536 4z m569 -107 c22 -6 22 -8 20 -153 l-3 -146 -98 -3 c-97 -3 -97 -3
-107 23 -11 29 -14 268 -3 278 8 9 160 9 191 1z m1382 -39 c0 -41 -2 -45 -25
-45 -22 0 -25 4 -25 38 0 43 5 52 32 52 15 0 18 -8 18 -45z m5030 -35 c5 -43
6 -45 58 -63 l54 -19 27 26 c33 32 38 32 68 4 30 -28 29 -46 -2 -78 -24 -25
-24 -28 -11 -56 32 -65 29 -69 -54 -69 -60 0 -75 3 -75 15 0 54 -71 90 -141
71 -44 -12 -90 -53 -79 -70 4 -8 -17 -11 -64 -11 -40 0 -71 4 -71 10 0 5 7 27
16 48 14 37 14 41 -6 75 -18 30 -19 39 -8 56 17 27 39 26 73 -3 l27 -24 49 22
c43 19 48 25 55 61 7 46 18 56 54 53 22 -3 26 -9 30 -48z m-5290 -47 c237 -6
245 -7 267 -29 31 -31 32 -101 3 -132 -20 -21 -28 -22 -288 -24 -537 -6 -521
-6 -543 21 -19 24 -27 114 -11 137 24 37 101 40 572 27z m-3632 -132 c83 -1
93 -3 90 -18 -6 -30 -69 -36 -276 -27 -108 4 -187 10 -174 12 12 2 22 8 22 13
0 19 44 26 144 23 56 -1 143 -3 194 -3z m-488 -15 c6 -8 33 -17 58 -19 26 -2
-63 -3 -198 -3 -225 1 -245 2 -248 19 -3 16 11 17 186 17 153 0 192 -3 202
-14z m9414 -17 c14 -7 27 -18 30 -25 4 -11 -11 -14 -74 -14 -84 0 -98 9 -52
34 33 18 63 20 96 5z"/>
<path d="M18270 20855 c0 -8 -7 -15 -15 -15 -8 0 -15 -4 -15 -10 0 -5 11 -10
25 -10 20 0 25 5 25 25 0 14 -4 25 -10 25 -5 0 -10 -7 -10 -15z"/>
<path d="M21351 20816 c-10 -12 -8 -13 9 -9 25 7 37 23 17 23 -8 0 -20 -6 -26
-14z"/>
<path d="M21973 20795 c-6 -18 23 -55 44 -55 17 0 17 20 -3 48 -18 26 -32 28
-41 7z"/>
<path d="M22282 20798 c-5 -7 -32 -58 -60 -114 l-51 -101 -88 -12 c-199 -27
-204 -38 -76 -157 l87 -81 -17 -105 c-21 -130 -21 -147 -2 -154 18 -7 97 25
162 66 26 17 57 30 69 30 12 0 67 -23 122 -51 85 -42 104 -49 122 -39 23 12
23 12 -6 153 -8 38 -14 77 -14 88 0 12 36 56 85 107 47 47 85 89 85 93 0 23
-38 37 -140 49 l-112 14 -22 35 c-12 20 -37 65 -55 101 -39 77 -49 90 -66 90
-7 0 -17 -6 -23 -12z m81 -143 c26 -53 53 -98 60 -100 6 -3 56 -11 110 -19 54
-8 101 -17 105 -20 3 -4 -30 -42 -73 -86 l-79 -80 18 -110 c10 -61 16 -113 13
-116 -3 -3 -51 18 -107 46 l-101 51 -99 -53 c-54 -29 -101 -50 -103 -48 -2 3
-1 32 4 65 4 33 11 83 15 111 l6 50 -78 77 c-57 55 -76 79 -68 87 8 8 164 39
205 40 3 0 28 45 55 100 27 55 53 100 59 100 6 0 32 -43 58 -95z"/>
<path d="M22611 20788 c-24 -25 -27 -48 -8 -48 16 0 47 32 47 48 0 22 -19 22
-39 0z"/>
<path d="M23440 20715 c0 -14 4 -25 9 -25 4 0 6 11 3 25 -2 14 -6 25 -8 25 -2
0 -4 -11 -4 -25z"/>
<path d="M21863 20664 c-7 -19 20 -44 49 -44 28 0 21 24 -12 43 -28 17 -31 17
-37 1z"/>
<path d="M22706 20655 c-11 -8 -16 -21 -12 -30 5 -14 8 -14 36 0 33 17 41 45
13 45 -10 0 -26 -7 -37 -15z"/>
<path d="M18420 20513 c-33 -13 -39 -38 -40 -154 0 -167 -13 -159 245 -159
176 0 205 2 205 15 0 9 -10 15 -22 16 -13 0 -100 2 -195 4 -94 1 -176 6 -182
9 -7 5 -11 49 -11 116 0 127 -4 123 115 118 l70 -3 3 -67 c2 -52 6 -68 17 -68
15 0 18 16 19 100 l1 35 93 3 c82 2 93 5 90 20 -3 15 -23 17 -198 19 -107 1
-202 -1 -210 -4z"/>
<path d="M19260 20499 c0 -12 7 -19 19 -19 45 0 51 -9 51 -75 0 -35 5 -67 10
-70 15 -9 30 39 30 96 l0 49 84 0 c116 0 116 0 116 -76 0 -48 3 -64 14 -64 18
0 28 43 20 87 -9 46 3 53 98 53 107 0 108 0 108 -75 0 -62 14 -91 30 -65 4 7
7 39 6 71 -2 68 -1 69 92 69 110 0 112 -2 112 -76 0 -62 14 -90 31 -63 5 8 7
37 5 64 -2 28 1 56 7 63 10 13 132 17 175 6 20 -6 22 -12 22 -70 0 -62 14 -90
31 -63 5 8 8 38 7 68 -2 49 0 55 23 63 25 10 150 5 168 -7 6 -3 11 -36 11 -71
0 -48 3 -65 13 -62 7 3 13 28 15 66 2 46 7 64 20 70 22 11 96 15 144 7 l37 -7
3 -66 c2 -52 6 -67 18 -67 12 0 16 16 18 68 l3 68 97 -3 97 -3 3 -67 c2 -49 7
-68 16 -68 19 0 26 23 26 86 l0 54 58 0 c31 0 63 -4 70 -8 9 -6 12 -37 10
-118 l-3 -109 -962 -3 c-847 -2 -963 -4 -963 -17 0 -8 1 -15 3 -16 1 0 433 -3
959 -6 l956 -5 26 25 c25 25 26 31 26 140 0 105 -2 115 -22 134 -23 21 -30 21
-980 26 -938 5 -958 5 -958 -14z"/>
<path d="M21800 20496 c0 -16 21 -26 56 -26 29 0 31 15 5 30 -28 14 -61 12
-61 -4z"/>
<path d="M22757 20503 c-30 -8 -13 -28 24 -28 24 0 35 5 37 18 4 17 -19 21
-61 10z"/>
<path d="M22744 20339 c-9 -15 5 -26 44 -34 25 -5 32 -3 32 9 0 17 -5 21 -42
30 -15 3 -30 1 -34 -5z"/>
<path d="M21804 20329 c-10 -18 9 -27 44 -22 44 7 43 33 -2 33 -19 0 -38 -5
-42 -11z"/>
<path d="M18075 20270 c3 -5 8 -10 11 -10 2 0 4 5 4 10 0 6 -5 10 -11 10 -5 0
-7 -4 -4 -10z"/>
<path d="M16970 20250 c0 -5 5 -10 10 -10 6 0 10 5 10 10 0 6 -4 10 -10 10 -5
0 -10 -4 -10 -10z"/>
<path d="M18112 20240 c7 -11 17 -20 22 -20 5 0 1 9 -9 20 -10 11 -20 20 -22
20 -2 0 2 -9 9 -20z"/>
<path d="M16950 20219 l-24 -10 24 -13 c30 -15 40 -12 40 15 0 21 -4 22 -40 8z"/>
<path d="M27012 20200 c0 -14 2 -19 5 -12 2 6 2 18 0 25 -3 6 -5 1 -5 -13z"/>
<path d="M17840 20189 c-6 -11 -9 -23 -6 -27 7 -11 48 -8 71 6 20 11 20 11 0
12 -17 0 -17 2 -5 10 17 11 16 11 -22 16 -20 2 -31 -3 -38 -17z"/>
<path d="M18150 20203 c0 -4 5 -15 10 -23 8 -13 10 -13 10 2 0 9 -4 20 -10 23
-5 3 -10 3 -10 -2z"/>
<path d="M21883 20183 c-23 -15 -31 -43 -13 -43 24 0 60 25 60 42 0 22 -17 22
-47 1z"/>
<path d="M22690 20182 c0 -17 36 -42 60 -42 18 0 10 29 -12 44 -30 21 -48 20
-48 -2z"/>
<path d="M26670 20163 c0 -18 4 -33 9 -33 17 0 18 14 5 40 l-14 25 0 -32z"/>
<path d="M17713 20137 c-17 -18 -19 -27 -11 -47 6 -15 12 -20 15 -12 3 6 9 10
14 6 5 -3 9 1 9 9 0 8 15 20 33 27 l32 12 -27 8 c-14 4 -31 10 -36 14 -5 3
-18 -5 -29 -17z"/>
<path d="M20647 20153 c-4 -3 -7 -69 -7 -145 l0 -138 -25 0 -26 0 3 -97 c3
-92 4 -98 25 -101 18 -3 22 -11 25 -45 2 -31 9 -44 24 -52 61 -30 73 -79 29
-113 -25 -20 -34 -52 -14 -52 24 0 79 68 79 97 0 36 -32 89 -59 98 -31 9 -29
62 2 67 21 3 22 8 25 96 3 91 2 92 -23 102 l-25 10 0 140 c0 110 -3 140 -13
140 -8 0 -17 -3 -20 -7z m41 -325 c13 -13 16 -59 6 -96 -5 -18 -13 -22 -33
-20 -24 3 -26 8 -29 52 -2 27 -1 55 2 62 7 17 38 18 54 2z"/>
<path d="M17936 20128 c22 -10 47 -29 57 -41 10 -12 16 -16 12 -8 -6 10 -2 11
13 7 17 -6 19 -3 15 14 -3 13 0 20 8 20 10 0 10 3 1 13 -8 7 -41 12 -79 13
l-65 1 38 -19z"/>
<path d="M22190 19995 c0 -58 4 -105 9 -105 5 0 31 9 57 20 l47 20 54 -20 c29
-11 58 -20 63 -20 6 0 10 44 10 105 0 87 -3 105 -15 105 -11 0 -15 -12 -16
-47 0 -55 -6 -103 -12 -109 -2 -2 -20 2 -40 11 -32 13 -39 13 -73 -1 -47 -20
-54 -11 -54 79 0 53 -3 67 -15 67 -12 0 -15 -18 -15 -105z"/>
<path d="M21992 20057 c-41 -43 -19 -66 24 -26 12 12 20 27 17 35 -7 20 -16
18 -41 -9z"/>
<path d="M22595 20067 c-8 -20 19 -57 42 -57 20 0 16 15 -11 47 -22 25 -25 26
-31 10z"/>
<path d="M18030 20008 c7 -39 31 -69 38 -48 2 6 8 8 13 4 17 -10 9 39 -8 53
-46 36 -51 35 -43 -9z"/>
<path d="M17673 20022 c-26 -12 -33 -22 -33 -44 0 -21 5 -28 20 -28 26 0 54
-43 46 -73 -9 -37 3 -65 25 -60 10 3 19 9 19 14 0 12 71 -32 77 -48 3 -7 14
-18 25 -24 15 -8 22 -7 33 8 10 13 10 20 2 25 -9 6 -8 8 1 8 7 0 10 5 7 11 -4
6 -13 8 -21 5 -30 -11 -75 8 -118 50 -48 46 -63 90 -52 144 3 17 4 29 3 29 -1
-1 -17 -9 -34 -17z"/>
<path d="M19690 19937 l-25 -31 32 19 c28 16 34 17 49 4 16 -13 16 -12 0 14
-10 15 -21 27 -25 26 -3 0 -17 -14 -31 -32z"/>
<path d="M23140 19934 c0 -8 5 -12 10 -9 6 4 8 11 5 16 -9 14 -15 11 -15 -7z"/>
<path d="M17930 19919 c-13 -8 -13 -10 0 -19 27 -18 39 -9 22 17 -5 8 -12 9
-22 2z"/>
<path d="M18010 19880 c8 -5 26 -9 40 -9 23 0 23 1 5 9 -11 5 -29 9 -40 9 -17
1 -17 -1 -5 -9z"/>
<path d="M17960 19817 c0 -25 25 -55 37 -43 3 3 1 6 -5 6 -7 0 -12 11 -12 24
0 14 -4 28 -10 31 -6 3 -10 -4 -10 -18z"/>
<path d="M16195 19790 c-31 -32 -27 -54 5 -25 14 12 27 15 47 11 24 -6 26 -5
13 6 -8 7 -20 19 -26 26 -8 9 -17 5 -39 -18z"/>
<path d="M16200 19743 c0 -4 5 -15 10 -23 8 -13 10 -13 10 2 0 9 -4 20 -10 23
-5 3 -10 3 -10 -2z"/>
<path d="M28160 19695 c0 -39 3 -46 18 -43 13 2 17 13 17 43 0 30 -4 41 -17
43 -15 3 -18 -4 -18 -43z"/>
<path d="M28023 19708 c-12 -15 11 -78 27 -78 19 0 22 28 5 59 -18 35 -19 36
-32 19z"/>
<path d="M28300 19694 c-14 -36 -12 -64 4 -64 16 0 41 64 31 80 -11 17 -25 11
-35 -16z"/>
<path d="M28416 19619 c-14 -17 -24 -35 -20 -40 10 -17 33 -9 53 20 17 24 19
31 7 40 -11 9 -19 5 -40 -20z"/>
<path d="M27890 19627 c0 -16 42 -57 58 -57 18 0 14 22 -7 48 -21 24 -51 30
-51 9z"/>
<path d="M28092 19619 c-27 -10 -24 -36 4 -31 10 2 51 4 89 5 55 1 80 -4 119
-22 99 -48 156 -133 164 -242 7 -99 -16 -157 -89 -229 -51 -50 -59 -64 -59
-95 l0 -36 -57 3 -58 3 -3 59 c-2 47 1 63 16 80 11 11 37 48 58 80 35 54 39
65 39 125 0 74 -21 121 -93 201 l-40 45 -27 -25 c-41 -38 -93 -123 -106 -172
-17 -62 1 -120 62 -208 46 -64 49 -73 49 -130 l0 -61 -52 3 -53 3 -6 44 c-3
25 -11 47 -17 49 -48 16 -106 97 -127 177 -18 69 -8 146 26 201 24 39 25 67 2
62 -32 -6 -68 -95 -72 -180 -4 -105 17 -162 91 -243 40 -43 58 -71 58 -89 0
-14 -4 -26 -10 -26 -13 0 -13 -33 1 -47 8 -8 7 -17 -3 -33 -10 -18 -10 -24 0
-27 14 -6 16 -33 2 -33 -14 0 -12 -37 3 -43 9 -3 9 -9 -1 -26 -11 -19 -9 -25
17 -52 16 -16 32 -38 36 -48 6 -19 58 -31 140 -31 79 0 105 10 132 51 14 22
32 39 39 39 17 0 18 37 2 43 -10 4 -10 7 0 18 15 16 16 46 1 51 -9 3 -8 10 2
25 11 18 11 24 -1 38 -10 12 -10 19 -2 27 15 15 16 48 2 48 -5 0 -10 12 -10
26 0 17 16 41 49 75 75 77 96 126 96 234 0 78 -4 97 -28 147 -55 112 -166 179
-295 177 -37 0 -78 -4 -90 -10z m68 -179 c0 -20 -5 -30 -15 -30 -29 0 -18 50
13 59 1 1 2 -12 2 -29z m66 13 c9 -13 9 -22 2 -30 -17 -21 -28 -15 -28 17 0
34 7 38 26 13z m47 -101 c-7 -21 -54 -72 -65 -72 -4 0 -8 12 -8 27 0 35 48 87
66 72 7 -6 10 -18 7 -27z m-136 6 c15 -14 23 -33 23 -55 0 -42 -8 -42 -42 1
-47 59 -31 102 19 54z m123 -118 c0 -5 -13 -24 -30 -42 -34 -38 -40 -21 -9 23
20 29 39 38 39 19z m-117 -26 c11 -14 16 -28 12 -32 -7 -7 -45 34 -45 49 0 16
15 9 33 -17z m161 -290 c42 -16 5 -24 -113 -24 -118 0 -152 6 -134 24 8 8 226
8 247 0z m14 -81 c3 -10 -27 -13 -127 -13 -119 0 -152 6 -134 24 13 13 256 2
261 -11z m-5 -68 c2 -11 -226 -20 -251 -10 -7 2 -10 10 -7 15 9 14 254 9 258
-5z m-23 -69 c0 -24 -18 -28 -113 -27 -86 2 -114 11 -101 33 3 4 52 8 110 8
84 0 104 -3 104 -14z"/>
<path d="M18623 19594 c-6 -13 -7 -24 -2 -24 12 0 31 38 21 44 -4 2 -12 -7
-19 -20z"/>
<path d="M27986 19571 c-13 -15 -14 -20 -4 -29 14 -11 48 7 48 26 0 19 -28 21
-44 3z"/>
<path d="M20834 19566 c-9 -24 1 -516 11 -519 6 -1 11 84 13 237 1 160 6 244
14 253 8 9 32 13 80 12 61 -2 89 4 77 15 -2 2 -46 6 -97 8 -65 4 -95 2 -98 -6z"/>
<path d="M21467 19573 c-72 -3 -97 -7 -94 -16 2 -8 39 -14 108 -17 l104 -5 2
-120 c1 -66 2 -186 2 -267 1 -125 3 -148 16 -148 13 0 15 38 15 284 l0 284
-22 6 c-13 3 -25 5 -28 4 -3 -1 -49 -4 -103 -5z"/>
<path d="M21742 19455 c3 -133 22 -162 26 -40 4 136 -13 124 174 127 118 2
162 6 166 16 3 9 -38 12 -182 12 l-187 0 3 -115z"/>
<path d="M22676 19562 c-5 -8 -8 -314 -7 -589 1 -138 3 -163 16 -163 13 0 15
46 15 353 0 261 3 356 12 365 9 9 76 12 240 12 206 0 259 6 212 24 -23 9 -482
7 -488 -2z"/>
<path d="M23512 19561 c-10 -6 -12 -65 -10 -279 2 -149 6 -273 10 -277 23 -24
28 20 28 264 0 175 4 261 11 268 22 22 -10 43 -39 24z"/>
<path d="M20097 19554 c-4 -4 -7 -128 -7 -276 0 -220 3 -275 15 -306 22 -52
52 -81 98 -93 59 -16 66 4 9 29 -85 39 -87 45 -90 362 -3 255 -7 302 -25 284z"/>
<path d="M23958 19548 c7 -8 33 -18 58 -22 61 -8 138 -51 180 -99 32 -38 64
-112 64 -148 0 -9 7 -22 15 -29 13 -11 15 -7 15 22 0 59 -30 126 -81 182 -56
61 -118 92 -205 102 -52 6 -58 6 -46 -8z"/>
<path d="M28508 19522 c-28 -17 -36 -36 -19 -46 14 -9 72 27 69 43 -4 21 -19
21 -50 3z"/>
<path d="M27800 19515 c0 -21 59 -50 74 -35 8 8 5 16 -14 30 -30 23 -60 26
-60 5z"/>
<path d="M27760 19390 c-18 -11 -4 -27 31 -35 22 -5 34 -3 40 6 4 7 7 15 5 17
-10 9 -65 19 -76 12z"/>
<path d="M28547 19393 c-10 -3 -17 -12 -15 -21 2 -12 12 -16 33 -13 37 4 45 8
45 27 0 14 -25 17 -63 7z"/>
<path d="M26242 19368 c-7 -7 -12 -17 -12 -22 0 -6 7 -2 15 8 15 20 15 20 30
0 8 -10 15 -14 15 -8 0 11 -20 34 -30 34 -3 0 -11 -5 -18 -12z"/>
<path d="M22000 19326 c0 -13 12 -16 73 -16 107 0 162 -22 198 -78 36 -56 45
-118 28 -179 -17 -63 -70 -120 -117 -129 -21 -4 -44 -10 -52 -15 -29 -15 19
-22 63 -9 80 23 147 117 147 206 0 48 -28 130 -56 164 -42 49 -79 63 -186 68
-86 4 -98 3 -98 -12z"/>
<path d="M23752 19332 c-8 -6 -11 -29 -7 -78 2 -38 5 -79 5 -92 l0 -24 124 4
c116 3 126 5 150 27 36 34 36 97 1 135 -21 22 -32 26 -83 26 -33 0 -86 2 -118
6 -32 3 -65 1 -72 -4z m243 -46 c30 -20 34 -69 8 -98 -14 -15 -32 -18 -118
-18 l-102 0 -7 38 c-15 93 -8 99 114 96 55 -1 88 -7 105 -18z"/>
<path d="M22910 19280 c0 -57 21 -67 30 -14 5 26 9 29 48 32 63 5 48 26 -21
30 l-57 3 0 -51z"/>
<path d="M23157 19324 c-17 -17 13 -24 109 -24 86 0 104 3 104 15 0 12 -18 15
-103 15 -57 0 -107 -3 -110 -6z"/>
<path d="M27771 19249 c-34 -13 -14 -31 30 -27 22 2 34 8 34 18 0 18 -31 23
-64 9z"/>
<path d="M28530 19246 c0 -7 10 -16 23 -20 41 -11 57 -7 57 14 0 17 -7 20 -40
20 -27 0 -40 -4 -40 -14z"/>
<path d="M21740 19125 c0 -69 3 -85 15 -85 12 0 15 16 15 85 0 69 -3 85 -15
85 -12 0 -15 -16 -15 -85z"/>
<path d="M28496 19143 c-13 -13 -5 -29 25 -47 26 -15 33 -16 40 -5 6 9 3 18
-9 27 -29 23 -49 32 -56 25z"/>
<path d="M27823 19116 c-25 -22 -26 -25 -10 -31 21 -9 67 19 67 40 0 22 -25
18 -57 -9z"/>
<path d="M21140 19099 c-52 -13 -130 -63 -130 -84 0 -19 14 -19 30 0 17 20 95
55 145 65 49 10 135 -5 188 -32 51 -26 110 -88 139 -146 17 -37 22 -64 23
-127 0 -71 -3 -86 -29 -130 -56 -95 -115 -141 -213 -166 -67 -16 -159 -1 -214
36 -44 29 -55 31 -62 11 -4 -10 6 -22 26 -35 65 -39 108 -51 191 -51 69 0 90
4 141 29 157 75 229 243 175 407 -28 83 -96 161 -175 199 -60 30 -164 40 -235
24z"/>
<path d="M19857 19054 c-22 -22 11 -157 56 -233 57 -96 166 -163 292 -177 46
-6 55 -4 55 9 0 11 -19 18 -70 27 -167 28 -267 128 -301 300 -13 68 -21 85
-32 74z"/>
<path d="M24190 19034 c-8 -8 -33 -26 -56 -40 l-43 -26 104 -119 c74 -84 105
-127 105 -144 l0 -26 -112 3 -112 3 -110 127 -111 127 -58 0 c-41 1 -57 -3
-56 -11 1 -7 1 -66 0 -130 l-1 -118 -99 0 -100 0 -3 52 c-2 41 -7 54 -20 56
-15 3 -18 -5 -18 -51 0 -90 -5 -87 141 -87 115 0 129 2 131 18 2 9 3 67 3 127
l0 110 31 3 c28 3 38 -6 107 -86 42 -49 93 -108 114 -131 l38 -41 124 -7 c113
-6 125 -5 137 12 29 39 17 72 -53 153 -37 42 -72 82 -78 87 -6 6 -19 20 -29
32 -17 21 -17 22 23 62 23 23 41 46 41 51 0 15 -26 12 -40 -6z"/>
<path d="M28412 19038 c-7 -10 -4 -20 13 -40 13 -16 29 -28 35 -28 18 0 10 36
-13 59 -19 17 -26 19 -35 9z"/>
<path d="M27916 19015 c-19 -30 -20 -45 -3 -45 19 0 60 47 52 59 -11 18 -32
12 -49 -14z"/>
<path d="M22935 18909 c-4 -6 -5 -12 -3 -15 3 -2 101 -5 219 -5 172 -1 214 2
214 13 0 10 -43 13 -212 15 -141 2 -214 -1 -218 -8z"/>
<path d="M21742 18773 l3 -118 245 1 c227 0 249 2 299 22 66 26 151 82 151
100 0 19 -16 15 -62 -18 -91 -64 -140 -74 -373 -74 -115 -1 -216 3 -222 8 -9
6 -13 39 -13 102 0 78 -3 94 -15 94 -13 0 -15 -17 -13 -117z"/>
<path d="M16405 18730 c3 -5 10 -10 16 -10 5 0 9 5 9 10 0 6 -7 10 -16 10 -8
0 -12 -4 -9 -10z"/>
<path d="M19547 18680 c-3 -11 -1 -20 4 -20 5 0 9 9 9 20 0 11 -2 20 -4 20 -2
0 -6 -9 -9 -20z"/>
<path d="M17917 18659 c7 -7 15 -10 18 -7 3 3 -2 9 -12 12 -14 6 -15 5 -6 -5z"/>
<path d="M17708 18653 c7 -3 16 -2 19 1 4 3 -2 6 -13 5 -11 0 -14 -3 -6 -6z"/>
<path d="M28125 18610 c-3 -5 5 -16 17 -25 l23 -15 3 -388 c2 -409 6 -476 25
-469 9 3 12 110 12 424 0 387 1 422 18 440 9 11 17 25 17 31 0 13 -107 15
-115 2z"/>
<path d="M17582 18341 c2 -10 15 -17 33 -18 102 -9 195 -44 282 -106 43 -31
66 -30 47 1 -32 52 -202 125 -317 135 -40 4 -48 2 -45 -12z"/>
<path d="M19645 18345 c-162 -39 -278 -150 -287 -274 -4 -51 19 -50 27 1 21
124 125 217 279 248 32 7 101 10 154 8 64 -2 97 1 99 8 2 6 -6 14 -19 18 -38
10 -200 5 -253 -9z"/>
<path d="M18306 18332 c-10 -2 -15 -9 -13 -15 6 -19 181 -22 196 -3 11 13 0
15 -77 18 -49 2 -97 1 -106 0z"/>
<path d="M17343 18315 c-33 -14 -44 -35 -19 -35 25 0 87 31 81 40 -8 13 -24
12 -62 -5z"/>
<path d="M20360 18315 c0 -12 17 -15 90 -15 50 0 90 4 90 9 0 15 -29 21 -106
21 -59 0 -74 -3 -74 -15z"/>
<path d="M24112 18319 c3 -9 28 -17 69 -22 82 -10 209 -71 267 -128 23 -23 42
-45 42 -49 0 -14 -145 -150 -161 -150 -9 0 -23 8 -32 18 -31 34 -110 66 -173
70 -207 14 -351 -158 -300 -359 22 -86 61 -138 127 -171 67 -33 139 -45 139
-23 0 9 -9 15 -21 15 -81 0 -184 78 -207 156 -17 57 -15 157 3 201 39 92 106
141 206 150 77 7 156 -18 215 -70 l45 -40 37 35 c20 19 69 65 107 101 l70 66
-40 41 c-89 91 -212 152 -339 166 -48 6 -58 5 -54 -7z"/>
<path d="M21656 18307 c4 -12 35 -16 167 -19 150 -3 166 -5 218 -30 111 -51
177 -137 199 -257 26 -144 -32 -278 -147 -343 l-53 -30 62 -72 c35 -39 65 -73
68 -76 3 -3 30 -33 59 -67 49 -57 81 -78 81 -53 0 8 -83 106 -182 215 -16 16
-28 33 -28 36 0 3 23 25 51 48 62 53 95 104 114 178 49 189 -45 382 -222 453
-51 21 -79 24 -226 28 -146 3 -166 2 -161 -11z"/>
<path d="M22425 18310 c-3 -5 -3 -39 1 -75 8 -80 27 -82 34 -4 l5 54 128 3
c117 2 151 10 111 26 -26 10 -272 7 -279 -4z"/>
<path d="M23110 18312 c-6 -2 -10 -8 -10 -13 0 -5 47 -9 104 -9 58 0 116 -4
130 -10 l26 -10 0 -275 c0 -238 2 -275 15 -275 13 0 15 39 15 295 0 229 -3
295 -12 295 -97 3 -260 4 -268 2z"/>
<path d="M26447 18307 c-61 -14 -87 -30 -68 -41 6 -4 36 1 67 10 42 12 84 15
168 12 130 -5 195 -25 287 -88 65 -44 88 -46 48 -4 -32 35 -93 69 -165 95 -75
26 -252 35 -337 16z"/>
<path d="M21350 18198 c0 -98 10 -142 27 -125 4 4 7 56 8 115 0 94 -2 107 -17
110 -16 3 -18 -7 -18 -100z"/>
<path d="M27289 18290 c-1 -5 -1 -19 -1 -30 0 -73 3 -91 15 -88 6 3 14 24 17
49 l5 44 96 3 97 3 182 -231 c180 -228 197 -247 206 -237 12 11 -40 80 -302
405 l-75 92 -120 0 c-72 0 -119 -4 -120 -10z"/>
<path d="M20097 18254 c-3 -4 14 -29 38 -57 24 -28 49 -63 54 -79 9 -26 7 -28
-65 -68 -42 -22 -79 -40 -82 -40 -4 0 -18 -9 -31 -19 -15 -12 -20 -21 -13 -25
9 -5 222 92 241 110 8 7 -24 69 -66 125 -40 55 -60 69 -76 53z"/>
<path d="M15622 18167 c-7 -9 -13 -93 -17 -239 -5 -206 -4 -227 13 -248 17
-22 19 -22 340 -21 177 1 329 4 337 7 24 10 28 67 22 278 -5 142 -11 204 -20
213 -9 9 -72 15 -220 19 l-207 7 0 -23 0 -23 183 7 c209 8 240 3 235 -42 -3
-24 -8 -27 -43 -30 -22 -2 -117 -1 -212 3 -156 6 -172 9 -176 26 -7 25 -27 24
-27 -1 0 -11 -6 -20 -14 -20 -7 0 -16 9 -19 20 -3 11 -10 20 -15 20 -5 0 -12
-9 -15 -20 -3 -11 -10 -20 -17 -20 -7 0 -14 9 -17 20 -7 26 -19 26 -26 -1 -9
-32 -51 -22 -55 14 -3 26 -2 27 48 27 44 0 51 3 48 18 -4 22 -108 30 -126 9z
m653 -135 c6 -4 8 -68 5 -172 l-5 -165 -300 0 c-165 0 -306 2 -312 4 -10 2
-13 44 -13 165 0 90 3 165 6 168 8 9 607 9 619 0z"/>
<path d="M15780 18161 c0 -16 6 -21 26 -21 33 0 30 33 -4 38 -17 3 -22 -2 -22
-17z"/>
<path d="M25312 18148 c6 -18 28 -21 28 -4 0 9 -7 16 -16 16 -9 0 -14 -5 -12
-12z"/>
<path d="M26456 18121 c-28 -9 -52 -23 -54 -29 -2 -7 8 -33 23 -58 25 -43 29
-46 59 -39 108 23 199 14 250 -26 34 -27 25 -39 -30 -39 l-44 0 0 -165 0 -165
60 0 60 0 0 156 c0 119 3 155 12 152 27 -9 50 -68 55 -143 7 -87 17 -98 86
-93 38 3 42 5 49 38 18 86 -26 226 -94 300 -57 62 -131 109 -142 91 -3 -5 16
-22 43 -39 99 -61 163 -177 165 -297 1 -59 1 -60 -28 -63 -35 -4 -46 10 -46
64 0 98 -67 201 -162 248 -56 28 -151 35 -216 17 -27 -8 -34 -7 -47 12 -8 12
-15 26 -15 33 0 14 40 32 91 40 21 4 42 11 45 15 9 15 -68 8 -120 -10z m282
-360 c-3 -104 -6 -126 -18 -126 -12 0 -16 21 -18 119 -3 132 0 149 23 140 13
-5 15 -26 13 -133z"/>
<path d="M26670 18125 c0 -8 7 -15 15 -15 8 0 15 4 15 9 0 5 -7 11 -15 15 -9
3 -15 0 -15 -9z"/>
<path d="M19680 18082 c-33 -16 -56 -62 -31 -62 6 0 11 4 11 8 0 15 58 42 89
42 21 0 31 5 31 15 0 21 -56 20 -100 -3z"/>
<path d="M25220 18086 c0 -9 5 -16 10 -16 6 0 10 4 10 9 0 6 -4 13 -10 16 -5
3 -10 -1 -10 -9z"/>
<path d="M25361 18084 c0 -11 3 -14 6 -6 3 7 2 16 -1 19 -3 4 -6 -2 -5 -13z"/>
<path d="M25290 18080 c0 -5 5 -10 10 -10 6 0 10 5 10 10 0 6 -4 10 -10 10 -5
0 -10 -4 -10 -10z"/>
<path d="M21640 17955 c0 -58 4 -105 9 -105 15 0 21 29 21 101 l0 69 121 0
122 0 33 -35 c18 -19 35 -35 38 -35 13 0 4 39 -14 63 -26 33 -92 47 -225 47
l-105 0 0 -105z"/>
<path d="M26305 18019 c-77 -85 -130 -263 -90 -303 13 -12 27 -15 53 -10 72
12 72 12 72 62 0 49 31 124 71 174 l22 27 -28 38 c-29 38 -44 53 -56 53 -4 0
-23 -19 -44 -41z m70 -23 c14 -22 13 -26 -20 -81 -19 -32 -40 -84 -46 -116
-10 -50 -15 -58 -38 -62 -14 -3 -29 -3 -33 0 -26 16 13 171 58 231 45 60 56
64 79 28z"/>
<path d="M18910 17991 c0 -67 19 -85 22 -21 1 22 2 48 2 57 1 9 -5 18 -11 21
-10 3 -13 -13 -13 -57z"/>
<path d="M18212 18020 c-14 -6 -25 -21 -28 -39 -8 -37 -30 -46 -62 -25 -30 20
-62 8 -88 -31 -15 -23 -15 -27 0 -50 9 -13 16 -34 16 -45 0 -21 -4 -24 -52
-34 -21 -5 -28 -12 -28 -31 0 -27 15 -34 23 -11 3 8 18 16 32 18 18 2 33 15
48 40 l21 38 -21 22 c-16 17 -19 27 -12 41 13 22 28 22 54 -3 21 -20 23 -20
63 -3 33 15 42 23 44 48 2 22 8 30 22 30 13 0 22 -10 28 -30 10 -41 69 -61
110 -37 22 13 29 13 42 3 21 -18 20 -34 -4 -56 -19 -17 -19 -18 1 -56 13 -27
26 -39 41 -39 12 0 30 -7 40 -17 10 -9 21 -13 25 -9 12 11 -12 41 -36 44 -12
2 -29 14 -37 28 -15 22 -15 26 0 49 22 33 20 48 -7 73 -28 26 -54 28 -78 6
-14 -12 -22 -13 -38 -4 -12 6 -21 17 -21 24 0 20 -31 53 -55 59 -11 3 -30 1
-43 -3z"/>
<path d="M24859 18026 c-2 -2 -3 -72 -1 -155 2 -125 6 -151 18 -151 12 0 14
23 12 152 -3 136 -9 173 -29 154z"/>
<path d="M17331 17948 c-34 -66 -43 -148 -17 -148 9 0 15 18 19 51 4 28 18 71
32 94 28 50 31 65 11 65 -8 0 -28 -28 -45 -62z"/>
<path d="M17753 18003 c-9 -3 -6 -17 12 -47 14 -24 30 -68 36 -100 14 -65 35
-71 32 -8 -2 42 -37 135 -57 150 -6 5 -17 7 -23 5z"/>
<path d="M25266 17951 c-4 -6 -18 -11 -32 -11 l-24 0 0 -119 c0 -77 4 -122 11
-127 6 -4 104 -5 218 -3 113 1 236 3 273 3 65 1 67 2 72 30 3 16 6 68 6 116
l0 87 -92 7 c-50 3 -161 6 -248 6 -99 0 -160 4 -167 11 -8 8 -13 8 -17 0z
m478 -47 c13 -5 16 -23 16 -96 l0 -90 -227 8 c-126 4 -240 7 -255 6 l-28 -1 0
84 0 85 168 3 c92 1 199 4 239 5 39 1 78 -1 87 -4z"/>
<path d="M22424 17831 c1 -55 5 -103 9 -107 17 -17 27 24 27 114 0 82 -2 92
-18 92 -17 0 -18 -9 -18 -99z"/>
<path d="M20640 17634 c0 -192 3 -245 13 -242 9 4 13 64 15 246 2 211 0 242
-13 242 -13 0 -15 -33 -15 -246z"/>
<path d="M16350 17835 c0 -12 19 -15 110 -15 91 0 110 3 110 15 0 12 -19 15
-110 15 -91 0 -110 -3 -110 -15z"/>
<path d="M22848 17837 c-62 -18 -91 -38 -126 -90 -72 -104 -66 -224 16 -310
69 -73 192 -95 278 -50 111 59 164 192 119 299 -51 122 -168 183 -287 151z
m42 -72 c0 -32 -2 -35 -30 -35 -21 0 -30 5 -30 16 0 27 20 54 40 54 16 0 20
-7 20 -35z m100 16 c19 -37 12 -51 -25 -51 -33 0 -35 2 -35 35 0 31 3 35 25
35 14 0 29 -8 35 -19z m-210 -41 c0 -5 -4 -10 -10 -10 -5 0 -10 5 -10 10 0 6
5 10 10 10 6 0 10 -4 10 -10z m-17 -84 c-3 -42 -47 -64 -60 -30 -10 27 14 66
40 62 18 -2 22 -9 20 -32z m127 -2 l0 -35 -42 3 c-32 2 -44 8 -46 21 -7 35 6
47 48 47 39 0 40 -1 40 -36z m130 21 c6 -8 10 -22 8 -32 -3 -14 -13 -18 -48
-18 -43 0 -45 1 -48 33 -3 31 -2 32 36 32 22 0 45 -6 52 -15z m94 -1 c11 -28
6 -54 -10 -61 -21 -8 -44 21 -44 54 0 18 6 23 24 23 13 0 27 -7 30 -16z m-360
-90 c10 -4 16 -18 16 -40 0 -30 -3 -34 -25 -34 -17 0 -29 8 -37 24 -19 43 3
67 46 50z m350 0 c32 -12 15 -74 -20 -74 -21 0 -24 5 -24 33 0 45 10 54 44 41z
m-214 -39 c0 -34 -1 -35 -39 -35 -32 0 -40 4 -45 23 -11 43 -8 47 39 47 45 0
45 0 45 -35z m136 5 c1 -38 -11 -48 -53 -41 -34 6 -38 10 -41 39 l-3 33 48 -3
c43 -3 48 -5 49 -28z m-236 -101 c0 -17 -3 -18 -20 -9 -20 11 -25 22 -14 33
11 11 34 -5 34 -24z m108 -8 c4 -40 -8 -55 -36 -47 -22 7 -48 59 -37 76 4 6
21 10 38 8 28 -3 32 -7 35 -37z m108 25 c6 -16 -12 -56 -30 -68 -26 -18 -45
-8 -52 26 -3 19 -3 39 1 45 9 16 75 14 81 -3z m64 -11 c-7 -8 -16 -15 -21 -15
-5 0 -9 7 -9 15 0 9 9 15 21 15 18 0 19 -2 9 -15z"/>
<path d="M26530 17725 l0 -125 55 0 c46 0 55 3 56 18 0 9 3 59 6 110 6 112 0
122 -68 122 l-49 0 0 -125z m74 69 c12 -32 6 -141 -8 -153 -8 -7 -16 -8 -19
-4 -5 8 -11 119 -8 156 1 21 27 23 35 1z"/>
<path d="M26397 17776 c-3 -8 -3 -23 0 -35 8 -32 -7 -132 -19 -125 -5 4 -17
22 -25 41 -13 33 -16 35 -50 28 -57 -10 -83 -23 -83 -41 0 -31 64 -136 104
-171 23 -20 70 -50 106 -67 59 -28 74 -31 165 -31 87 0 107 3 155 26 87 41
180 133 195 192 7 25 3 28 -40 47 -61 26 -67 25 -89 -10 -80 -136 -257 -171
-382 -75 -19 15 -33 30 -29 33 3 3 27 9 53 12 l47 5 0 90 0 90 -51 3 c-38 2
-53 -1 -57 -12z m73 -79 c0 -30 -3 -57 -7 -60 -14 -15 -33 18 -33 58 0 44 5
55 27 55 9 0 13 -16 13 -53z m-131 -74 c25 -48 74 -95 131 -125 36 -18 61 -23
125 -23 71 0 86 3 135 31 30 17 70 51 89 75 36 46 65 54 88 22 27 -36 -81
-145 -184 -186 -140 -55 -302 -14 -404 101 -23 26 -49 62 -57 80 -16 32 -16
35 3 48 32 23 53 17 74 -23z"/>
<path d="M16415 17750 c-10 -17 5 -30 35 -30 36 0 47 16 21 29 -25 14 -48 14
-56 1z"/>
<path d="M25387 17654 c-3 -3 -3 -12 0 -20 4 -11 28 -14 102 -14 100 0 140 11
111 30 -16 10 -203 14 -213 4z"/>
<path d="M16218 17633 c-127 -5 -110 -23 22 -23 61 0 110 4 110 9 0 9 -27 23
-38 19 -4 -1 -46 -4 -94 -5z"/>
<path d="M16392 17623 c3 -15 13 -18 58 -18 42 0 55 3 55 15 0 11 -14 16 -58
18 -52 3 -58 1 -55 -15z"/>
<path d="M16060 17619 c0 -5 5 -7 10 -4 6 3 10 8 10 11 0 2 -4 4 -10 4 -5 0
-10 -5 -10 -11z"/>
<path d="M18550 17545 c0 -42 3 -55 15 -55 12 0 15 13 15 55 0 42 -3 55 -15
55 -12 0 -15 -13 -15 -55z"/>
<path d="M15858 17565 c-4 -4 -4 -13 -1 -21 4 -11 27 -14 92 -14 83 0 124 10
108 27 -10 9 -190 17 -199 8z"/>
<path d="M19300 17537 c0 -8 14 -41 30 -74 29 -57 107 -143 130 -143 22 0 8
28 -33 68 -24 24 -57 70 -72 103 -26 54 -55 78 -55 46z"/>
<path d="M15992 17453 c3 -16 15 -18 93 -15 50 1 97 5 105 8 30 12 -23 23
-113 23 -79 1 -88 -1 -85 -16z"/>
<path d="M16275 17450 c3 -5 28 -10 56 -10 27 0 49 5 49 10 0 6 -25 10 -56 10
-34 0 -53 -4 -49 -10z"/>
<path d="M18546 17441 c-9 -14 12 -63 24 -56 16 10 12 65 -4 65 -8 0 -17 -4
-20 -9z"/>
<path d="M28487 17233 c-35 -9 -10 -28 43 -31 56 -3 87 11 60 28 -15 10 -71
11 -103 3z"/>
<path d="M17124 17116 c-4 -9 -5 -19 -2 -21 2 -2 479 -7 1060 -11 1064 -7
1095 -6 1062 26 -5 5 -483 11 -1061 15 -973 7 -1053 6 -1059 -9z"/>
<path d="M22200 17119 c-9 -5 -544 -6 -1397 -2 -1265 6 -1383 5 -1383 -10 0
-9 3 -18 8 -20 4 -3 934 -8 2067 -11 1133 -3 2391 -8 2795 -11 404 -2 1391 -7
2193 -10 1303 -4 1458 -3 1464 11 3 8 4 16 2 18 -2 2 -451 6 -998 9 -750 4
-996 8 -1001 17 -6 9 -9 9 -15 0 -6 -10 -394 -11 -1854 -5 -1015 4 -1851 11
-1856 15 -6 5 -17 5 -25 -1z"/>
<path d="M16794 16689 c-3 -6 -1 -16 4 -21 8 -8 11 -5 9 11 -1 24 -3 25 -13
10z"/>
<path d="M23950 15092 c0 -5 7 -9 15 -9 8 0 12 4 9 9 -3 4 -9 8 -15 8 -5 0 -9
-4 -9 -8z"/>
<path d="M21394 14506 c-3 -7 -4 -40 -2 -72 l3 -59 38 -3 c33 -3 37 -1 37 20
0 13 -6 30 -12 36 -9 9 -10 15 -2 20 6 4 13 15 17 25 3 9 16 17 28 17 18 0 19
-2 9 -15 -10 -12 -10 -18 0 -30 9 -10 9 -15 1 -15 -6 0 -11 -13 -11 -30 0 -23
4 -30 20 -30 11 0 21 6 21 13 6 58 4 114 -4 125 -14 17 -136 16 -143 -2z"/>
<path d="M21647 14514 c-11 -12 -8 -132 4 -139 18 -12 71 -17 106 -10 l34 6
-3 72 -3 72 -65 3 c-36 2 -69 0 -73 -4z m108 -44 c7 -11 -12 -51 -29 -62 -20
-14 -33 -8 -44 17 -16 35 -16 35 13 35 14 0 25 5 25 10 0 13 27 13 35 0z"/>
<path d="M21897 14514 c-4 -4 -7 -36 -7 -70 0 -73 12 -85 76 -80 22 2 47 4 57
5 16 1 18 10 15 74 l-3 72 -65 3 c-36 2 -69 0 -73 -4z m53 -44 c0 -5 -7 -10
-15 -10 -8 0 -15 -9 -15 -20 0 -11 7 -20 15 -20 8 0 15 -5 15 -10 0 -7 -6 -7
-20 0 -21 11 -25 27 -14 54 7 17 34 22 34 6z m27 -46 c-9 -9 -28 6 -21 18 4 6
10 6 17 -1 6 -6 8 -13 4 -17z m43 16 c0 -5 -4 -10 -10 -10 -5 0 -10 5 -10 10
0 6 5 10 10 10 6 0 10 -4 10 -10z"/>
<path d="M22144 14509 c-11 -19 -4 -133 9 -141 7 -5 39 -7 72 -6 l60 3 0 75 0
75 -67 3 c-44 2 -69 -1 -74 -9z m36 -29 c0 -5 -4 -10 -10 -10 -5 0 -10 5 -10
10 0 6 5 10 10 10 6 0 10 -4 10 -10z m6 -65 c-4 -14 -11 -23 -16 -20 -11 7
-13 48 -3 59 13 13 26 -13 19 -39z m77 24 c6 -9 7 -24 2 -35 -8 -18 -8 -18
-13 1 -7 35 -21 40 -31 12 -14 -37 -21 -34 -21 9 0 32 2 35 26 32 15 -2 32
-10 37 -19z"/>
<path d="M22391 14507 c-16 -20 -11 -115 6 -133 16 -15 109 -19 131 -5 9 5 12
28 10 77 l-3 69 -66 3 c-48 2 -69 -1 -78 -11z m129 -77 c0 -5 -17 -10 -37 -12
-49 -4 -57 -28 -9 -28 20 0 36 -4 36 -10 0 -5 -18 -10 -40 -10 -33 0 -42 4
-52 25 -14 30 1 52 40 57 30 4 62 -7 62 -22z"/>
<path d="M22640 14501 c-14 -27 -13 -104 3 -125 10 -14 25 -16 77 -14 l65 3 3
63 c4 82 -5 92 -79 92 -47 0 -60 -4 -69 -19z m108 -23 c27 -27 7 -78 -29 -78
-10 0 -20 -6 -22 -12 -3 -7 -6 4 -6 25 -1 25 3 37 13 37 9 0 12 -7 9 -20 -7
-27 23 -27 32 0 8 25 -8 47 -38 53 -19 4 -19 4 4 6 14 0 30 -4 37 -11z m-71
-40 c-3 -7 -5 -2 -5 12 0 14 2 19 5 13 2 -7 2 -19 0 -25z"/>
<path d="M13790 11530 c0 -5 4 -10 9 -10 6 0 13 5 16 10 3 6 -1 10 -9 10 -9 0
-16 -4 -16 -10z"/>
</g>
</svg>
